<?xml version="1.0" encoding="UTF-8"?>
<svg width="10px" height="10px" viewBox="0 0 10 10" version="1.1" xmlns="http://www.w3.org/2000/svg" xmlns:xlink="http://www.w3.org/1999/xlink">
    <!-- Generator: Sketch 55.2 (78181) - https://sketchapp.com -->
    <title></title>
    <desc>Created with Sketch.</desc>
    <g id="Symbols" stroke="none" stroke-width="1" fill="none" fill-rule="evenodd">
        <g id="Components/Listing-Status-Tags/Pending-+" transform="translate(-62.000000, -3.000000)" fill="#FBA000" fill-rule="nonzero">
            <path d="M72,8 C72,10.7620377 69.7612305,13 67,13 C64.2387695,13 62,10.7620377 62,8 C62,5.23957677 64.2387695,3 67,3 C69.7612305,3 72,5.23957677 72,8 Z M67.1341789,4.65322581 C66.0354476,4.65322581 65.3346853,5.11606918 64.7844041,5.93866557 C64.7131111,6.04524083 64.7369542,6.18896878 64.8391389,6.26644405 L65.5387002,6.79689863 C65.6436413,6.87648059 65.7931578,6.85754001 65.8746889,6.75411495 C66.2348554,6.29729634 66.4818115,6.03240376 67.0300057,6.03240376 C67.4418748,6.03240376 67.9513215,6.29747354 67.9513215,6.69687973 C67.9513215,6.99880686 67.7020815,7.15387554 67.2954102,7.38187138 C66.8211276,7.64774839 66.1935484,7.97865738 66.1935484,8.80645161 L66.1935484,8.88709677 C66.1935484,9.0207047 66.3018759,9.12903226 66.4354839,9.12903226 L67.5645161,9.12903226 C67.6981241,9.12903226 67.8064516,9.0207047 67.8064516,8.88709677 L67.8064516,8.86022162 C67.8064516,8.2863927 69.4835796,8.26249055 69.4835796,6.70967742 C69.4835796,5.5402832 68.2705944,4.65322581 67.1341789,4.65322581 Z M67,9.65322581 C66.4886041,9.65322581 66.0725806,10.0692493 66.0725806,10.5806452 C66.0725806,11.0920213 66.4886041,11.5080645 67,11.5080645 C67.5113959,11.5080645 67.9274194,11.0920213 67.9274194,10.5806452 C67.9274194,10.0692493 67.5113959,9.65322581 67,9.65322581 Z" id=""></path>
        </g>
    </g>
</svg>