<?xml version="1.0" encoding="UTF-8"?>
<svg width="64px" height="64px" viewBox="0 0 64 64" version="1.1" xmlns="http://www.w3.org/2000/svg" xmlns:xlink="http://www.w3.org/1999/xlink">
    <!-- Generator: Sketch 55.2 (78181) - https://sketchapp.com -->
    <title>Branding/HAR Logo</title>
    <desc>Created with Sketch.</desc>
    <g id="Website" stroke="none" stroke-width="1" fill="none" fill-rule="evenodd">
        <g id="Layout" transform="translate(-108.000000, -40.000000)">
            <g id="Nav">
                <g id="Logo" transform="translate(96.000000, 40.000000)">
                    <g id="Design/Branding/Logo/Default" transform="translate(12.000000, 0.000000)">
                        <g id="Group">
                            <circle id="Blue" fill="#0738CD" cx="32" cy="32" r="32"></circle>
                            <path d="M19.2315329,47.9021102 C18.4999908,47.9021102 17.8227221,47.7629115 17.2004909,47.4847709 C16.5777502,47.2068871 16.0387126,46.831667 15.5831232,46.3593673 C15.1275338,45.8870676 14.7711905,45.3341251 14.5148578,44.7000261 C14.2577607,44.0664408 14.1297217,43.3998536 14.1297217,42.7014202 L14.1297217,42.6625114 C14.1297217,41.9512368 14.2578881,41.2783574 14.5148578,40.6445152 C14.7711905,40.0106731 15.1275338,39.4541351 15.5831232,38.9756716 C16.0387126,38.4972081 16.5778776,38.1186493 17.2004909,37.8402518 C17.8228495,37.562368 18.4999908,37.4231693 19.2315329,37.4231693 C19.7064873,37.4231693 20.1364689,37.4686272 20.5214776,37.5589009 C20.9064863,37.6496883 21.2593897,37.775789 21.5804426,37.9373314 C21.9011133,38.0993874 22.1965585,38.289951 22.4660136,38.5099209 C22.7355961,38.7298909 22.9858135,38.9628304 23.2167933,39.2083543 L22.2349064,40.2561971 C21.8370302,39.8423249 21.4039909,39.4867518 20.9355339,39.1889641 C20.4666948,38.8915617 19.8923668,38.7424752 19.2124226,38.7424752 C18.7118603,38.7424752 18.2432759,38.8427651 17.8070516,39.0432164 C17.3705726,39.2440529 16.991934,39.5187264 16.6711358,39.8681357 C16.3500829,40.2172882 16.0999929,40.6280785 15.9202287,41.1003782 C15.7404646,41.5726779 15.650901,42.0802909 15.650901,42.6237309 L15.650901,42.662383 C15.650901,43.205823 15.743777,43.7138212 15.9299113,44.1857357 C16.1157907,44.6580354 16.3727605,45.072036 16.6999287,45.4277375 C17.0270969,45.7835674 17.4123604,46.0618364 17.8549548,46.2621593 C18.2979314,46.462739 18.7823136,46.5629005 19.308611,46.5629005 C19.9503347,46.5629005 20.5181652,46.4207483 21.0126121,46.1360586 C21.5062947,45.8516258 21.9524563,45.4957959 22.3505874,45.0686973 L23.2938715,45.9615466 C22.7933092,46.5309258 22.2253513,46.9966765 21.5899978,47.3585418 C20.9545168,47.7207923 20.168192,47.9021102 19.2315329,47.9021102 Z M29.024666,47.9021102 C28.2803838,47.9021102 27.5935599,47.7629115 26.9645765,47.4847709 C26.335593,47.2068871 25.7903127,46.831667 25.3282258,46.3593673 C24.8661389,45.8870676 24.5066106,45.3375922 24.2500231,44.7097855 C23.9930534,44.0824924 23.864887,43.4128233 23.864887,42.7012918 L23.864887,42.662383 C23.864887,41.9511083 23.9931808,41.2782289 24.2500231,40.6443868 C24.5066106,40.0105447 24.8661389,39.4540067 25.3282258,38.9755432 C25.7903127,38.4966945 26.3390329,38.1185208 26.9745138,37.8401234 C27.6096126,37.5622396 28.3057368,37.4230409 29.0632688,37.4230409 C29.807551,37.4230409 30.4976874,37.5622396 31.1329135,37.8401234 C31.768267,38.1185208 32.3169872,38.493741 32.7790741,38.9657839 C33.241161,39.4380836 33.6003071,39.9878158 33.8572768,40.6153657 C34.1139918,41.2429156 34.2422855,41.9123279 34.2422855,42.6238593 L34.2422855,42.6625114 C34.2422855,43.3742996 34.1104245,44.0469222 33.8475943,44.6807643 C33.5843818,45.3148633 33.2217959,45.8711445 32.759709,46.349608 C32.2976221,46.8284567 31.7458443,47.2068871 31.1041207,47.4847709 C30.4621422,47.7629115 29.7690756,47.9021102 29.024666,47.9021102 Z M29.0632688,46.5630289 C28.536844,46.5630289 28.0492767,46.4596571 27.6003122,46.2525284 C27.1505833,46.0459133 26.7626444,45.7675159 26.4354762,45.4181066 C26.108308,45.0686973 25.8512108,44.6581638 25.6653314,44.1858641 C25.4790697,43.7139496 25.3861937,43.2059514 25.3861937,42.6625114 L25.3861937,42.6238593 C25.3861937,42.093389 25.4758847,41.5923249 25.6557762,41.1197684 C25.8352856,40.6477255 26.082318,40.2369352 26.3968734,39.8875259 C26.7113014,39.5381166 27.0929976,39.2602328 27.5424717,39.0531041 C27.9915636,38.846489 28.4858832,38.7426036 29.0247934,38.7426036 C29.5510909,38.7426036 30.0385307,38.846489 30.4881322,39.0531041 C30.9372241,39.2602328 31.3284755,39.5415837 31.662396,39.8972852 C31.9960617,40.2532436 32.2559617,40.6669874 32.4422234,41.1392871 C32.6279754,41.6114583 32.721361,42.1191998 32.721361,42.662383 L32.721361,42.7012918 C32.721361,43.232019 32.6314153,43.7298727 32.4517785,44.1956234 C32.2717595,44.6613741 32.0216695,45.0686973 31.7008714,45.4181066 C31.3799459,45.7675159 30.9949372,46.0459133 30.5458453,46.2525284 C30.0961164,46.4596571 29.6021791,46.5630289 29.0632688,46.5630289 Z M49.7877442,41.1128342 L49.7881264,41.1128342 L49.7881264,47.755592 L48.3056773,47.755592 L48.3056773,41.9080903 C48.3056773,41.8080573 48.3084801,41.4732869 48.3084801,41.427829 C48.3084801,40.0493252 47.1877252,38.9270034 45.8200652,38.9270034 C44.4524053,38.9270034 43.3436261,40.0448307 43.3436261,41.4232062 C43.3436261,41.4520989 43.3278283,41.8065163 43.3278283,41.8691814 L43.3278283,47.755592 L42.9726316,47.755592 L42.202232,47.755592 L41.8348048,47.755592 L41.8348048,41.8691814 C41.8348048,41.714188 41.8172233,41.4062558 41.8172233,41.3984227 C41.8172233,40.0247985 40.7122662,38.9109519 39.3495749,38.9109519 C37.9867563,38.9109519 36.8819265,40.0247985 36.8819265,41.3984227 C36.8819265,41.4242335 36.8691864,41.7586186 36.8691864,41.9080903 L36.8691864,47.755592 L35.3867372,47.755592 L35.3846988,41.1236208 C35.3846988,39.0324298 37.1011853,37.336748 39.1760535,37.336748 C40.6885694,37.336748 41.9916366,37.8534783 42.5873681,39.1523667 C43.1827174,37.8533499 44.485912,37.336748 45.998428,37.336748 C48.0732961,37.336748 49.7877442,39.0219 49.7877442,41.1128342 Z M52.9807259,24.5508036 C52.5034609,25.2304417 51.8522611,25.768605 51.0271263,26.1660571 L54.1798398,30.7559267 L49.0158044,30.7559267 L46.4240596,26.8964581 L45.495639,26.8964581 L45.495639,30.7559267 L40.9260424,30.7559267 L40.9260424,17.2839267 L47.5845213,17.2834351 C48.796434,17.2834351 49.7925599,17.4213474 50.572771,17.6966631 C51.3527262,17.9724878 51.9812723,18.347421 52.4585373,18.82159 C52.8710407,19.2320191 53.1805143,19.6934656 53.3869579,20.205675 C53.5928896,20.7185205 53.6964314,21.32106 53.6964314,22.0515881 C53.6964314,23.0387299 53.457735,23.8716745 52.9807259,24.5508036 Z M34.2661528,17.6185468 L40.0098432,30.7191993 L36.3124153,30.7191993 C35.4721781,29.2600513 33.8917897,28.2763446 32.0792322,28.2763446 C30.2668027,28.2763446 28.6865423,29.2600513 27.846305,30.7191993 L24.1729388,30.7191993 L29.5883415,18.2972942 L29.5824541,18.2969125 L29.8798968,17.6022619 C30.5757642,17.3936123 31.3130996,17.28 32.0774404,17.28 C32.8358937,17.28 33.5669577,17.3931034 34.2578337,17.5985724 L34.2661528,17.6185468 Z M18.6487467,17.2834351 L23.1746371,17.2834351 L23.1746371,30.741591 L18.6487467,30.741591 L18.6487467,26.9338624 L14.5097623,26.9338624 L14.5097623,30.741591 L9.984,30.741591 L9.984,17.2834351 L9.98463994,17.2834351 L14.5104023,17.2834351 L14.5097623,17.2834351 L14.5097623,23.050053 L18.6487467,23.050053 L18.6487467,17.2834351 Z M49.1897392,22.3781757 L49.1897392,22.3400081 C49.1897392,21.9043884 49.0350025,21.5804725 48.725529,21.3688967 C48.4160554,21.1574481 47.9968967,21.051851 47.4684367,21.051851 L45.495639,21.051851 L45.495639,23.6857982 L47.4489827,23.6857982 C47.9906253,23.6857982 48.4160554,23.5702776 48.725529,23.3397452 C49.0350025,23.1089583 49.1897392,22.7888593 49.1897392,22.3781757 Z M32.0833278,22.0313593 C32.0833278,22.0313593 31.0087456,24.5452057 30.7616019,25.1287886 C31.1909997,25.0575424 31.6316603,25.0186114 32.0816639,25.0186114 C32.5332035,25.0186114 32.975016,25.0575424 33.4056936,25.1296791 C33.1741644,24.5795566 32.0835838,22.0316138 32.0833278,22.0313593 Z" id="HARCOM" fill="#FFFFFF"></path>
                            <circle id="Red" fill="#FD4B78" cx="32.064" cy="33.344" r="3.008"></circle>
                        </g>
                    </g>
                </g>
            </g>
        </g>
    </g>
</svg>