<?xml version="1.0" encoding="UTF-8"?>
<svg width="24px" height="24px" viewBox="0 0 24 24" version="1.1" xmlns="http://www.w3.org/2000/svg" xmlns:xlink="http://www.w3.org/1999/xlink">
    <!-- Generator: Sketch 55.2 (78181) - https://sketchapp.com -->
    <title> Components/Buttons/Special/Search</title>
    <desc>Created with Sketch.</desc>
    <g id="-Components/Buttons/Special/Search" stroke="none" stroke-width="1" fill="none" fill-rule="evenodd">
        <rect fill="#FFFFFF" opacity="0.01" x="0" y="0" width="24" height="24"></rect>
        <path d="M14.7082166,13.621559 L17.7749458,16.6882882 C18.0750181,16.9883604 18.0750181,17.4748736 17.7749458,17.7749458 C17.4748736,18.0750181 16.9883604,18.0750181 16.6882882,17.7749458 L13.621559,14.7082166 C12.94074,15.1774667 12.1155084,15.4522128 11.2261064,15.4522128 C8.89209228,15.4522128 7,13.5601205 7,11.2261064 C7,8.89209228 8.89209228,7 11.2261064,7 C13.5601205,7 15.4522128,8.89209228 15.4522128,11.2261064 C15.4522128,12.1155084 15.1774667,12.94074 14.7082166,13.621559 Z M11.2261064,13.9154468 C12.7113881,13.9154468 13.9154468,12.7113881 13.9154468,11.2261064 C13.9154468,9.74082469 12.7113881,8.53676596 11.2261064,8.53676596 C9.74082469,8.53676596 8.53676596,9.74082469 8.53676596,11.2261064 C8.53676596,12.7113881 9.74082469,13.9154468 11.2261064,13.9154468 Z" id="Search" fill="#0738CD"></path>
    </g>
</svg>