<?xml version="1.0" encoding="UTF-8"?>
<svg width="16px" height="16px" viewBox="0 0 16 16" version="1.1" xmlns="http://www.w3.org/2000/svg" xmlns:xlink="http://www.w3.org/1999/xlink">
    <!-- Generator: Sketch 55.2 (78181) - https://sketchapp.com -->
    <title></title>
    <desc>Created with Sketch.</desc>
    <g id="Website" stroke="none" stroke-width="1" fill="none" fill-rule="evenodd">
        <g id="Layout" transform="translate(-25.000000, -1337.000000)" fill="#0738CD" fill-rule="nonzero">
            <g id="Nav">
                <g id="GitHub-Link" transform="translate(0.000000, 1310.000000)">
                    <path d="M30.3516255,39.8831864 C30.3516255,39.9493558 30.2774068,40.0022783 30.1838773,40.0022783 C30.077432,40.0121973 30.0032132,39.9592747 30.0032132,39.8831864 C30.0032132,39.8170171 30.077432,39.7640622 30.1709614,39.7640622 C30.2677356,39.7541432 30.3516255,39.8070658 30.3516255,39.8831864 Z M29.3483808,39.7343054 C29.3709677,39.668136 29.4645287,39.6350513 29.5483871,39.6581848 C29.6451613,39.6879739 29.7064642,39.7640622 29.6870905,39.8302315 C29.6677482,39.8964009 29.570974,39.9294856 29.4870842,39.8964009 C29.39031,39.876563 29.3257939,39.8004747 29.3483808,39.7343054 Z M30.7741935,39.678055 C30.8677545,39.668136 30.9548261,39.7111396 30.9645287,39.7739811 C30.9741998,39.8401505 30.9096837,39.9030243 30.8161227,39.92619 C30.7193485,39.9493558 30.6354902,39.9063198 30.6258191,39.8401505 C30.6161164,39.7640622 30.6806326,39.7012207 30.7741935,39.678055 Z M32.8967679,27 C37.3709677,27 41,30.4838101 41,35.0726614 C41,38.741765 38.8129095,41.8814816 35.5871031,42.9798993 C35.1774194,43.0559876 35.0290449,42.794638 35.0290449,42.5795876 C35.0290449,42.3082868 35.038716,40.9286493 35.038716,39.8136892 C35.038716,39.0361993 34.7871094,38.5399291 34.4903289,38.2785795 C36.2935358,38.0701202 38.1935484,37.8153941 38.1935484,34.6227227 C38.1935484,33.7161896 37.8774257,33.2596275 37.3612966,32.6740222 C37.445155,32.4589718 37.7193485,31.5756045 37.2774068,30.4275597 C36.6032321,30.2092137 35.0516003,31.320846 35.0516003,31.320846 C34.406439,31.1355847 33.7128906,31.0396262 33.0258002,31.0396262 C32.3387097,31.0396262 31.6451613,31.1355847 31,31.320846 C31,31.320846 29.4483997,30.2125093 28.7741935,30.4275597 C28.3322518,31.5723089 28.6064453,32.4589718 28.6903352,32.6740222 C28.1742061,33.2562996 27.929026,33.712894 27.929026,34.6227227 C27.929026,37.8054428 29.7483934,38.0734481 31.5516003,38.2785795 C31.3193674,38.4969255 31.10969,38.8641525 31.0354713,39.3935073 C30.5741872,39.6118856 29.39031,39.9791126 28.6838773,38.702057 C28.2419355,37.9146481 27.4386971,37.8484787 27.4386971,37.8484787 C26.6483745,37.8385275 27.3870968,38.3579634 27.3870968,38.3579634 C27.9161416,38.6060985 28.2838647,39.568882 28.2838647,39.568882 C28.7580645,41.0510691 31.016129,40.5547989 31.016129,40.5547989 C31.016129,41.2495771 31.0258002,42.3810796 31.0258002,42.5861787 C31.0258002,42.8012291 30.8806389,43.062611 30.4677419,42.9865227 C27.2516066,41.8814816 25,38.741765 25,35.0726614 C25,30.4838101 28.422568,27 32.8967679,27 Z M28.1354902,38.4109183 C28.1774194,38.3678823 28.2516066,38.3910481 28.3032384,38.4440029 C28.3580519,38.5068444 28.3677545,38.5829327 28.3257939,38.6160174 C28.2838647,38.6590533 28.2096774,38.6358876 28.1580771,38.5829327 C28.1032321,38.5200912 28.093561,38.4440029 28.1354902,38.4109183 Z M27.7871094,38.142913 C27.8096648,38.1098283 27.8612966,38.0999094 27.9258128,38.1197472 C27.9903289,38.1528319 28.0225869,38.2057868 28,38.2487904 C27.9774131,38.2951219 27.9128969,38.3050408 27.8612966,38.2719561 C27.7967805,38.2388715 27.7645224,38.1859166 27.7871094,38.142913 Z M28.8322518,39.3207469 C28.8741809,39.267792 28.9709551,39.277711 29.0419292,39.3538316 C29.1064453,39.4166731 29.1258191,39.5159271 29.0838584,39.5589307 C29.0419292,39.6118856 28.9483997,39.6019667 28.8741809,39.525846 C28.7999937,39.4630045 28.7806515,39.3637505 28.8322518,39.3207469 Z M28.4645287,38.8343957 C28.516129,38.7913921 28.5999874,38.8244767 28.6451613,38.900565 C28.6967616,38.9766533 28.6967616,39.0626606 28.6451613,39.1056965 C28.6032321,39.1387812 28.516129,39.1056965 28.4645287,39.0295759 C28.4128969,38.9534876 28.4128969,38.8674803 28.4645287,38.8343957 Z" id=""></path>
                </g>
            </g>
        </g>
    </g>
</svg>